<?xml version="1.0" standalone="no"?>

<!DOCTYPE svg PUBLIC "-//W3C//DTD SVG 20010904//EN"

 "http://www.w3.org/TR/2001/REC-SVG-20010904/DTD/svg10.dtd">

<svg version="1.0" xmlns="http://www.w3.org/2000/svg"

 width="1170.000000pt" height="1913.000000pt" viewBox="0 0 1170.000000 1913.000000"

 preserveAspectRatio="xMidYMid meet">

<path fill="#3f3f3f" stroke="none" d="
M0 957

L0 0

L585 0

L1170 0

L1170 957

L1170 1913

L585 1913

L0 1913

L0 957

Z

"/>

<path fill="#454545" stroke="none" d="
M0 957

L0 0

L585 0

L1170 0

L1170 957

L1170 1913

L585 1913

L0 1913

L0 957

Z

M158 71

L158 70

L157 70

L156 70

L157 71

C157 72 157 72 158 72

L158 72

L158 71

Z

"/>

<path fill="#494949" stroke="none" d="
M0 957

L0 0

L585 0

L1170 0

L1170 957

L1170 1913

L585 1913

L0 1913

L0 957

Z

M968 1236

C900 1236 790 1236 722 1236

L600 1237

L845 1237

L1091 1237

L968 1236

Z

M969 1228

C901 1228 791 1228 723 1228

L600 1229

L846 1229

L1093 1229

L969 1228

Z

M597 978

L596 976

L596 980

L596 985

L597 982

C597 981 597 979 597 978

Z

M597 925

L596 924

L596 925

L596 927

L597 927

L597 926

L597 925

Z

M597 755

L598 754

L597 755

C596 755 596 756 596 756

L596 757

L596 757

L597 757

L597 755

Z

M1093 755

L1092 754

L1093 755

L1093 757

L1094 757

L1094 756

L1093 755

Z

M597 743

L597 742

L596 742

L596 743

L596 744

C597 745 597 745 598 745

L598 745

L597 743

Z

M54 69

C53 68 52 67 52 66

L51 66

L51 67

C52 68 52 70 52 71

L52 72

L53 71

L55 71

L54 69

Z

M158 71

L158 70

L157 70

L156 70

L156 71

L156 72

L157 72

L158 72

L158 71

Z

M73 57

C72 57 71 56 70 56

L68 55

L70 57

L72 60

L73 59

L74 58

L73 57

Z

"/>

<path fill="#525252" stroke="none" d="
M0 957

L0 0

L585 0

L1170 0

L1170 957

L1170 1913

L585 1913

L0 1913

L0 957

Z

M1167 957

L1167 3

L585 3

L3 3

L3 957

L3 1910

L585 1910

L1167 1910

L1167 957

Z

M598 1742

C597 1742 597 1628 597 1490

C597 1296 597 1239 598 1238

C600 1236 1090 1236 1092 1238

C1093 1239 1093 1296 1093 1490

C1093 1628 1093 1742 1092 1742

L1092 1744

L845 1744

L598 1744

L598 1742

Z

M598 1227

C597 1226 597 1163 597 990

L598 756

L845 756

L1093 756

L1093 990

C1093 1163 1093 1226 1092 1227

C1091 1228 1051 1228 845 1228

C639 1228 599 1228 598 1227

Z

M598 742

C597 742 597 628 597 490

C597 296 597 239 598 238

C600 236 1090 236 1092 238

C1093 239 1093 296 1093 490

C1093 628 1093 742 1092 742

L1092 744

L845 744

L598 744

L598 742

Z

M167 200

C166 200 140 169 108 132

L52 66

L51 66

C51 67 54 85 58 108

C66 149 66 149 61 153

C58 156 55 158 54 158

L53 158

L53 156

C52 154 29 29 29 27

L29 26

L31 26

C34 26 155 70 156 71

L156 72

L152 76

C144 83 149 84 106 69

C86 61 68 55 68 55

L68 56

L120 117

C148 150 174 180 177 184

L182 190

L181 191

C180 193 170 202 169 202

C168 202 167 201 167 200

Z

"/>

<path fill="#676767" stroke="none" d="
M0 957

L0 0

L585 0

L1170 0

L1170 957

L1170 1913

L585 1913

L0 1913

L0 957

Z

M1168 956

L1168 3

L585 3

L3 3

L2 956

L2 1910

L585 1910

L1168 1910

L1168 956

Z

M598 1742

C597 1742 597 1628 597 1490

C597 1296 597 1239 598 1238

C600 1236 1090 1236 1092 1238

C1093 1239 1093 1296 1093 1490

C1093 1628 1093 1742 1092 1742

L1092 1744

L845 1744

L598 1744

L598 1742

Z

M598 1227

C597 1226 597 1172 597 992

C597 863 597 757 598 757

L598 755

L845 755

L1092 755

L1092 757

C1093 757 1093 863 1093 992

C1093 1172 1093 1226 1092 1227

C1090 1229 600 1229 598 1227

Z

M598 742

C597 742 597 628 597 490

C597 296 597 239 598 238

C600 236 1090 236 1092 238

C1093 239 1093 296 1093 490

C1093 628 1093 742 1092 742

L1092 744

L845 744

L598 744

L598 742

Z

M165 199

C162 196 61 77 54 69

L51 65

L51 67

C51 68 54 87 58 109

C66 149 66 149 61 153

C58 156 55 158 54 158

L53 158

L52 153

C47 129 29 28 30 27

L30 26

L33 26

C39 28 154 69 155 70

L156 72

L151 76

C148 79 145 81 144 81

C143 81 126 75 105 68

C85 61 68 55 68 55

L67 55

L76 66

C131 129 181 189 181 190

C181 192 180 194 176 197

C173 199 170 201 169 201

L168 202

L165 199

Z

"/>

<path fill="#7d7d7d" stroke="none" d="
M0 957

L0 0

L585 0

L1170 0

L1170 957

L1170 1913

L585 1913

L0 1913

L0 957

Z

M1169 956

L1169 2

L585 2

L2 2

L1 955

C1 1479 1 1909 1 1910

L2 1911

L585 1911

L1169 1911

L1169 956

Z

M599 1743

C598 1743 598 1629 598 1490

L598 1238

L845 1238

L1092 1238

L1092 1491

L1092 1744

L845 1744

C710 1744 599 1744 599 1743

Z

M598 1092

C598 1017 598 911 598 856

L599 756

L845 756

L1092 756

L1092 991

L1092 1227

L845 1227

L598 1227

L598 1092

Z

M599 743

C598 743 598 629 598 490

L598 238

L845 238

L1092 238

L1092 491

L1092 744

L845 744

C710 744 599 744 599 743

Z

M109 132

L51 64

L50 64

C50 65 53 84 58 106

C65 148 65 148 61 152

C58 156 54 158 53 157

C53 156 30 31 30 28

L30 26

L30 26

C31 26 131 62 152 69

L155 70

L155 71

C155 73 146 81 144 81

C144 81 126 75 105 67

C84 60 67 54 66 54

L66 55

L124 122

C155 159 181 190 181 191

C181 192 170 201 169 201

C168 201 141 170 109 132

Z

"/>

<path fill="#bebebe" stroke="none" d="
M598 1742

C598 1741 598 1628 598 1490

L599 1239

L845 1239

L1092 1239

L1092 1491

L1092 1743

L845 1743

L599 1743

L598 1742

Z

M598 1226

C598 1225 598 1119 598 991

L599 757

L845 757

L1092 757

L1092 992

L1092 1227

L845 1227

L599 1227

L598 1226

Z

M598 742

C598 741 598 628 598 490

L599 239

L845 239

L1092 239

L1092 491

L1092 743

L845 743

L599 743

L598 742

Z

M110 132

L51 63

L50 63

L49 64

L57 106

C61 129 64 148 64 149

C64 149 62 151 59 153

L55 157

L54 156

C54 156 48 128 42 94

C36 60 31 31 30 30

L30 27

L31 27

C33 27 153 70 154 71

L155 72

L150 76

C147 78 144 80 143 80

C142 80 125 74 104 67

L67 53

L66 54

C66 55 68 57 70 60

C73 63 98 93 127 127

C156 161 179 189 180 190

L180 191

L176 195

C173 197 171 199 170 200

L168 201

L110 132

Z

"/>

<path fill="#ffffff" stroke="none" d="
M599 1491

L599 1239

L845 1239

L1091 1239

L1091 1491

L1091 1742

L845 1742

L599 1742

L599 1491

Z

M599 992

L599 757

L845 757

L1091 757

L1091 992

L1091 1226

L845 1226

L599 1226

L599 992

Z

M599 491

L599 239

L845 239

L1091 239

L1091 491

L1091 742

L845 742

L599 742

L599 491

Z

M110 131

C78 93 51 62 50 62

C50 62 49 62 49 63

C48 63 52 82 56 106

C64 148 64 148 60 151

C58 153 56 155 55 155

L54 155

L54 154

C54 154 49 125 43 91

C36 57 31 28 31 28

C32 28 55 36 84 46

C112 56 139 66 144 68

L153 71

L153 72

C153 72 151 74 148 76

C144 79 144 80 141 79

C140 78 122 72 102 65

C77 56 65 52 65 53

L64 54

L66 56

C72 63 177 187 178 189

L179 191

L175 195

C173 197 170 199 170 199

L168 200

L110 131

Z

"/>

</svg>

